<svg width="447" height="335" viewBox="0 0 447 335" fill="none" xmlns="http://www.w3.org/2000/svg">
<path d="M47.6502 3.22464H46.5774C46.5774 3.22464 46.3219 3.53117 45.811 4.14423C45.4023 4.65511 44.8404 5.31926 44.1251 6.13667C43.4099 6.85191 42.6947 7.61823 41.9794 8.43564C41.2642 9.25305 40.7022 9.9172 40.2935 10.4281C38.25 12.8803 36.9728 14.5151 36.4619 15.3326C35.951 16.15 35.6956 16.8141 35.6956 17.325V51.0432H0.138148V25.6013C0.138148 19.2664 1.05774 14.413 2.89691 11.0411C4.83827 7.56714 7.49486 5.06382 10.8667 3.53117C14.3407 1.89635 18.4788 0.976756 23.2811 0.7724C28.0834 0.465874 33.3966 0.312611 39.2207 0.312611H44.7382C50.5623 0.312611 55.8243 0.465874 60.5245 0.7724C65.3268 0.976756 69.4138 1.89635 72.7856 3.53117C76.1575 5.06382 78.763 7.56714 80.6022 11.0411C82.4413 14.413 83.3609 19.2664 83.3609 25.6013V38.3223H47.6502V3.22464ZM35.6956 78.9374C36.1043 81.6962 38.0967 83.0756 41.6729 83.0756H41.8262C45.0958 83.0756 46.9861 81.6962 47.497 78.9374H83.3609C83.2587 79.4483 83.2076 79.9081 83.2076 80.3168C83.2076 80.7255 83.2076 81.1342 83.2076 81.5429C83.2076 82.156 83.1055 82.9734 82.9011 83.9952H0.444678C0.342502 83.1778 0.240325 82.3603 0.138148 81.5429C0.138148 80.7255 0.138148 79.857 0.138148 78.9374H35.6956ZM82.1348 87.9801C81.7261 89.6149 81.1641 91.0453 80.4489 92.2715H2.89691C2.59038 91.6584 2.28386 90.9943 1.97733 90.279C1.6708 89.5638 1.41536 88.7975 1.211 87.9801H82.1348ZM0.138148 59.3195V51.8096H35.6956V59.3195H0.138148ZM0.138148 67.5958V60.8522H35.6956V67.5958H0.138148ZM76.7705 97.0227C74.9313 98.5553 72.8878 99.7304 70.6399 100.548H12.7059C10.3558 99.7304 8.31227 98.5553 6.57527 97.0227H76.7705ZM47.6502 75.7189V69.8948H83.3609V75.7189H47.6502ZM0.138148 75.7189V69.8948H35.6956V75.7189H0.138148ZM47.6502 67.5958V64.9903H83.3609V67.5958H47.6502ZM95.7263 51.0432C95.3176 50.6345 94.9089 50.1747 94.5001 49.6639C94.1936 49.0508 93.836 48.3867 93.4273 47.6714C92.7121 45.9344 92.2012 43.7887 91.8946 41.2343C91.6903 38.6799 91.5881 35.6657 91.5881 32.1917V0.312611H127.146V35.4102C127.861 37.4538 129.291 39.4973 131.437 41.5408C133.583 43.4822 136.137 44.8105 139.1 45.5257V0.312611H174.811V51.0432H95.7263ZM109.06 59.3195C106.71 58.5021 104.411 57.5315 102.163 56.4075C100.018 55.1814 98.0763 53.6487 96.3393 51.8096H174.811V59.3195H109.06ZM132.05 82.7691C133.787 82.7691 135.166 82.4114 136.188 81.6962C137.21 80.981 137.976 80.0614 138.487 78.9374H174.811C174.709 79.4483 174.658 79.9081 174.658 80.3168C174.658 80.7255 174.658 81.1342 174.658 81.5429C174.658 82.156 174.555 82.9734 174.351 83.9952H91.8946C91.7925 83.1778 91.6903 82.3603 91.5881 81.5429C91.5881 80.7255 91.5881 79.857 91.5881 78.9374H127.146C127.554 81.4918 129.138 82.8712 131.897 83.0756L132.05 82.7691ZM173.585 87.9801C173.176 89.6149 172.614 91.0453 171.899 92.2715H94.3469C94.1425 91.7606 93.8871 91.1475 93.5806 90.4323C93.274 89.7171 93.0186 88.8996 92.8142 87.9801H173.585ZM136.341 67.5958C133.991 65.7567 130.824 64.4284 126.839 63.611C122.956 62.7935 118.869 61.874 114.578 60.8522H174.811V67.5958H136.341ZM168.22 97.0227C166.688 98.5553 164.695 99.7304 162.243 100.548H104.156C101.704 99.7304 99.7111 98.5553 98.1785 97.0227H168.22ZM139.1 75.7189V71.734C138.998 71.5296 138.896 71.2742 138.794 70.9677C138.691 70.6611 138.538 70.3035 138.334 69.8948H174.811V75.7189H139.1ZM91.5881 75.7189V69.8948H127.146V75.7189H91.5881ZM265.495 27.9003C265.495 31.6808 265.035 34.8994 264.115 37.5559C263.196 40.2125 261.918 42.4604 260.284 44.2996C258.751 46.0366 256.912 47.4671 254.766 48.591C252.722 49.6128 250.526 50.4302 248.176 51.0432H229.784V3.22464C229.784 3.22464 229.528 3.53117 229.018 4.14423C228.507 4.65511 227.842 5.31926 227.025 6.13667C226.31 6.85191 225.595 7.61823 224.879 8.43564C224.164 9.25305 223.602 9.9172 223.193 10.4281C221.15 12.8803 219.873 14.5151 219.362 15.3326C218.851 16.15 218.596 16.8141 218.596 17.325V51.0432H183.038V0.312611H227.945C233.769 0.312611 238.98 0.465874 243.578 0.7724C248.278 0.976756 252.212 1.89635 255.379 3.53117C258.649 5.06382 261.152 7.56714 262.889 11.0411C264.626 14.413 265.495 19.2664 265.495 25.6013V27.9003ZM225.033 83.0756C226.77 83.0756 227.945 82.7691 228.558 82.156C229.273 81.4408 229.682 80.3679 229.784 78.9374H265.495C265.392 79.4483 265.341 79.9081 265.341 80.3168C265.341 80.7255 265.341 81.1342 265.341 81.5429C265.341 82.156 265.239 82.9734 265.035 83.9952H183.038V78.9374H218.596C219.004 81.6962 220.946 83.0756 224.42 83.0756H225.033ZM264.268 87.9801C263.86 89.6149 263.247 91.0453 262.429 92.2715H183.038V87.9801H264.268ZM183.038 59.3195V51.8096H218.596V59.3195H183.038ZM258.598 97.0227C257.065 98.5553 254.97 99.7304 252.314 100.548H183.038V97.0227H258.598ZM183.038 67.5958V60.8522H218.596V67.5958H183.038ZM262.276 60.8522C262.889 61.7718 263.4 62.7935 263.809 63.9175C264.217 65.0414 264.575 66.2675 264.881 67.5958H229.784V60.8522H262.276ZM265.188 69.8948C265.29 70.61 265.341 71.3253 265.341 72.0405C265.443 72.6536 265.495 73.3688 265.495 74.1862V75.7189H229.784V69.8948H265.188ZM183.038 75.7189V69.8948H218.596V75.7189H183.038ZM250.015 51.8096C252.263 52.7292 254.306 53.802 256.145 55.0281C258.087 56.1521 259.773 57.5825 261.203 59.3195H229.784V51.8096H250.015ZM356.196 35.87C356.196 39.1397 355.89 42.0517 355.277 44.6061C354.766 47.1605 353.999 49.3062 352.978 51.0432H273.74V25.6013C273.74 19.2664 274.659 14.413 276.498 11.0411C278.44 7.56714 281.096 5.06382 284.468 3.53117C287.942 1.89635 292.08 0.976756 296.883 0.7724C301.685 0.465874 306.998 0.312611 312.822 0.312611H318.646C324.47 0.312611 329.681 0.465874 334.279 0.7724C338.979 0.976756 342.913 1.89635 346.081 3.53117C349.35 5.06382 351.854 7.56714 353.591 11.0411C355.328 14.413 356.196 19.2664 356.196 25.6013V35.87ZM352.365 51.8096C349.912 55.5901 346.183 58.0934 341.176 59.3195H273.74V51.8096H352.365ZM309.297 16.2521V48.2845C310.83 46.6497 312.465 45.2703 314.202 44.1463C316.041 42.9202 318.135 42.1028 320.485 41.6941V3.22464C320.383 3.32682 319.975 3.78661 319.259 4.60402C318.544 5.31926 317.624 6.23885 316.501 7.36279C315.479 8.48673 314.661 9.35523 314.048 9.96829C312.516 11.7053 311.443 13.0336 310.83 13.9532C310.319 14.7706 309.808 15.5369 309.297 16.2521ZM309.297 78.9374C309.706 81.6962 311.698 83.0756 315.274 83.0756H315.428C317.165 83.0756 318.391 82.7691 319.106 82.156C319.821 81.4408 320.281 80.3679 320.485 78.9374H356.196C356.094 79.4483 356.043 79.9081 356.043 80.3168C356.043 80.7255 356.043 81.1342 356.043 81.5429C356.043 82.156 355.941 82.9734 355.736 83.9952H274.046C273.944 83.1778 273.842 82.3603 273.74 81.5429C273.74 80.7255 273.74 79.857 273.74 78.9374H309.297ZM354.97 87.9801C354.561 89.6149 353.999 91.0453 353.284 92.2715H276.498C276.192 91.6584 275.885 90.9943 275.579 90.279C275.272 89.5638 275.017 88.7975 274.813 87.9801H354.97ZM331.827 60.8522C331.01 60.9544 330.141 61.0565 329.222 61.1587C328.302 61.1587 327.331 61.1587 326.309 61.1587H320.485H309.297V67.5958H273.74V60.8522H331.827ZM349.606 97.0227C347.767 98.5553 345.723 99.7304 343.475 100.548H286.307C283.957 99.7304 281.914 98.5553 280.177 97.0227H349.606ZM320.485 75.7189V69.8948H356.196V75.7189H320.485ZM273.74 75.7189V69.8948H309.297V75.7189H273.74ZM446.898 27.9003C446.898 31.6808 446.438 34.8994 445.518 37.5559C444.599 40.2125 443.322 42.4604 441.687 44.2996C440.154 46.0366 438.315 47.4671 436.169 48.591C434.126 49.6128 431.929 50.4302 429.579 51.0432H411.187V3.22464C411.187 3.22464 410.932 3.53117 410.421 4.14423C409.91 4.65511 409.246 5.31926 408.428 6.13667C407.713 6.85191 406.998 7.61823 406.283 8.43564C405.567 9.25305 405.005 9.9172 404.597 10.4281C402.553 12.8803 401.276 14.5151 400.765 15.3326C400.254 16.15 399.999 16.8141 399.999 17.325V51.0432H364.441V0.312611H409.348C415.172 0.312611 420.383 0.465874 424.981 0.7724C429.681 0.976756 433.615 1.89635 436.782 3.53117C440.052 5.06382 442.555 7.56714 444.292 11.0411C446.029 14.413 446.898 19.2664 446.898 25.6013V27.9003ZM364.441 59.3195V51.8096H399.999V59.3195H364.441ZM364.441 67.5958V60.8522H399.999V67.5958H364.441ZM444.599 60.8522C445.825 62.5892 446.591 64.5305 446.898 66.6763V67.5958H411.187V60.8522H444.599ZM411.187 75.7189V69.8948H446.898V75.7189H411.187ZM431.878 51.8096C434.126 52.627 436.271 53.6487 438.315 54.8749C440.358 56.101 442.095 57.5825 443.526 59.3195H411.187V51.8096H431.878ZM364.441 75.7189V69.8948H399.999V75.7189H364.441ZM411.187 83.9952V78.9374H446.898V83.9952H411.187ZM364.441 83.9952V78.9374H399.999V83.9952H364.441ZM411.187 92.2715V87.9801H446.898V92.2715H411.187ZM364.441 92.2715V87.9801H399.999V92.2715H364.441ZM411.187 100.548V97.0227H446.898V100.548H411.187ZM364.441 100.548V97.0227H399.999V100.548H364.441ZM82.5946 151.41C82.5946 157.95 81.4196 163.161 79.0695 167.043H46.8839V119.225C46.8839 119.225 46.6285 119.531 46.1176 120.144C45.6067 120.655 44.9425 121.319 44.1251 122.137C43.4099 122.852 42.6947 123.618 41.9794 124.436C41.2642 125.253 40.7022 125.917 40.2935 126.428C38.25 128.88 36.9728 130.515 36.4619 131.333C35.951 132.15 35.6956 132.814 35.6956 133.325V167.043H0.138148V116.313H45.0447C50.8688 116.313 56.0798 116.466 60.6777 116.772C65.3778 116.977 69.3116 117.896 72.4791 119.531C75.7488 121.064 78.2521 123.567 79.9891 127.041C81.7261 130.413 82.5946 135.266 82.5946 141.601V151.41ZM0.138148 175.32V167.81H35.6956V175.32H0.138148ZM0.138148 183.596V176.852H35.6956V183.596H0.138148ZM0.138148 191.719V185.895H35.6956V191.719H0.138148ZM78.4564 167.81C77.026 169.853 75.2379 171.488 73.0922 172.714C70.9465 173.838 68.5453 174.706 65.8887 175.32H46.8839V167.81H78.4564ZM0.138148 199.995V194.937H35.6956V199.995H0.138148ZM0.138148 208.271V203.98H35.6956V208.271H0.138148ZM0.138148 216.548V213.023H35.6956V216.548H0.138148ZM174.676 116.313V167.043H138.965V116.313H174.676ZM90.8398 167.043V116.313H126.397V167.043H90.8398ZM174.676 194.937C174.573 195.448 174.522 195.908 174.522 196.317C174.522 196.726 174.522 197.134 174.522 197.543C174.522 198.156 174.42 198.973 174.216 199.995H91.1463C91.0441 199.178 90.9419 198.36 90.8398 197.543C90.8398 196.726 90.8398 195.857 90.8398 194.937H126.397C126.806 197.696 128.798 199.076 132.375 199.076H132.988C136.359 199.076 138.301 197.696 138.812 194.937H174.676ZM173.449 203.98C173.041 205.615 172.479 207.045 171.764 208.271H93.5985C93.292 207.658 92.9855 206.994 92.6789 206.279C92.3724 205.564 92.117 204.797 91.9126 203.98H173.449ZM138.965 175.32V167.81H174.676V175.32H138.965ZM90.8398 175.32V167.81H126.397V175.32H90.8398ZM138.965 183.596V176.852H174.676V183.596H138.965ZM90.8398 183.596V176.852H126.397V183.596H90.8398ZM168.085 213.023C166.246 214.555 164.202 215.73 161.955 216.548H103.407C101.057 215.73 99.0139 214.555 97.2769 213.023H168.085ZM138.965 191.719V185.895H174.676V191.719H138.965ZM90.8398 191.719V185.895H126.397V191.719H90.8398ZM231.014 119.225H229.328C229.328 119.225 229.072 119.531 228.561 120.144C228.153 120.655 227.591 121.319 226.875 122.137C226.16 122.852 225.445 123.618 224.73 124.436C224.014 125.253 223.452 125.917 223.044 126.428C221 128.88 219.723 130.515 219.212 131.333C218.701 132.15 218.446 132.814 218.446 133.325V167.043H182.888V116.313H227.488C233.313 116.313 238.626 116.466 243.428 116.772C248.23 116.977 252.368 117.896 255.842 119.531C259.316 121.064 261.973 123.567 263.812 127.041C265.754 130.413 266.724 135.266 266.724 141.601V167.043H231.014V119.225ZM231.014 175.32V167.81H266.724V175.32H231.014ZM182.888 175.32V167.81H218.446V175.32H182.888ZM231.014 183.596V176.852H266.724V183.596H231.014ZM182.888 183.596V176.852H218.446V183.596H182.888ZM231.014 191.719V185.895H266.724V191.719H231.014ZM182.888 191.719V185.895H218.446V191.719H182.888ZM231.014 199.995V194.937H266.724V199.995H231.014ZM182.888 199.995V194.937H218.446V199.995H182.888ZM231.014 208.271V203.98H266.724V208.271H231.014ZM182.888 208.271V203.98H218.446V208.271H182.888ZM231.014 216.548V213.023H266.724V216.548H231.014ZM182.888 216.548V213.023H218.446V216.548H182.888ZM274.937 167.043V116.313H310.494V167.043H274.937ZM356.78 143.9C356.78 147.681 356.321 150.899 355.401 153.556C354.481 156.213 353.204 158.46 351.569 160.3C350.037 162.037 348.198 163.467 346.052 164.591C344.008 165.613 341.812 166.43 339.462 167.043H321.07V116.313H356.78V143.9ZM274.937 175.32V167.81H310.494V175.32H274.937ZM274.937 183.596V176.852H310.494V183.596H274.937ZM354.481 176.852C355.708 178.589 356.474 180.531 356.78 182.676V183.596H321.07V176.852H354.481ZM321.07 191.719V185.895H356.78V191.719H321.07ZM341.761 167.81C344.008 168.627 346.154 169.649 348.198 170.875C350.241 172.101 351.978 173.583 353.409 175.32H321.07V167.81H341.761ZM274.937 191.719V185.895H310.494V191.719H274.937ZM321.07 199.995V194.937H356.78V199.995H321.07ZM274.937 199.995V194.937H310.494V199.995H274.937ZM321.07 208.271V203.98H356.78V208.271H321.07ZM274.937 208.271V203.98H310.494V208.271H274.937ZM321.07 216.548V213.023H356.78V216.548H321.07ZM274.937 216.548V213.023H310.494V216.548H274.937Z" fill="#00FF66"/>
<path d="M35.6956 293.159H48.2633V335H83.974V261.28H48.2633V273.541C45.811 273.847 43.5121 274.614 41.3664 275.84C39.2207 276.964 37.3304 278.394 35.6956 280.131V261.28H0.138148V335H35.6956V293.159ZM46.5774 235.225H48.2633V256.682H83.974V232.313H39.2207C33.4988 232.313 28.2367 232.466 23.4344 232.772C18.7343 232.977 14.6472 233.845 11.1732 235.378C7.69921 236.911 4.99153 239.312 3.05018 242.581C1.211 245.851 0.240325 250.551 0.138148 256.682H35.6956V249.325C35.6956 248.814 35.951 248.15 36.4619 247.333C36.9728 246.515 38.25 244.88 40.2935 242.428C40.7022 241.917 41.2642 241.253 41.9794 240.436C42.6947 239.618 43.4099 238.852 44.1251 238.137C44.8404 237.319 45.4023 236.655 45.811 236.144C46.3219 235.531 46.5774 235.225 46.5774 235.225ZM127.744 335V261.28H92.1868V335H127.744ZM138.933 256.682H174.643C174.541 250.551 173.57 245.851 171.731 242.581C169.994 239.312 167.491 236.911 164.221 235.378C161.054 233.845 157.171 232.977 152.573 232.772C147.975 232.466 142.815 232.313 137.093 232.313H92.1868V256.682H127.744V249.325C127.744 248.814 128 248.15 128.511 247.333C129.021 246.515 130.299 244.88 132.342 242.428C132.751 241.917 133.313 241.253 134.028 240.436C134.743 239.618 135.459 238.852 136.174 238.137C136.991 237.319 137.655 236.655 138.166 236.144C138.677 235.531 138.933 235.225 138.933 235.225V256.682ZM174.643 267.41V261.28H138.933V292.699C144.144 292.699 148.946 292.495 153.339 292.086C157.733 291.677 161.514 290.655 164.681 289.021C167.849 287.284 170.301 284.729 172.038 281.357C173.775 277.986 174.643 273.336 174.643 267.41ZM265.345 267.87V261.28H229.634V273.694C227.284 274.103 225.189 274.92 223.35 276.146C221.613 277.27 219.978 278.65 218.446 280.284V261.28H182.888V309.558C182.888 315.893 183.808 320.797 185.647 324.271C187.589 327.745 190.245 330.3 193.617 331.935C197.091 333.467 201.229 334.387 206.031 334.693C210.834 334.898 216.147 335 221.971 335H226.109C231.933 335 237.246 334.898 242.049 334.693C246.851 334.387 250.989 333.467 254.463 331.935C257.937 330.3 260.594 327.745 262.433 324.271C264.374 320.797 265.345 315.893 265.345 309.558V300.669H229.634V309.711C229.634 311.448 229.277 312.777 228.561 313.696C227.846 314.616 226.518 315.076 224.576 315.076H224.423C220.438 315.076 218.446 313.287 218.446 309.711V293.159H229.634C234.845 293.159 239.647 292.954 244.041 292.546C248.435 292.137 252.215 291.115 255.383 289.48C258.55 287.743 261.002 285.189 262.739 281.817C264.476 278.445 265.345 273.796 265.345 267.87ZM218.446 248.252C218.957 247.537 219.468 246.771 219.978 245.953C220.592 245.034 221.664 243.705 223.197 241.968C223.81 241.355 224.628 240.487 225.649 239.363C226.773 238.239 227.693 237.319 228.408 236.604C229.123 235.787 229.532 235.327 229.634 235.225V256.682H265.345C265.243 250.551 264.272 245.851 262.433 242.581C260.696 239.312 258.193 236.911 254.923 235.378C251.755 233.845 247.873 232.977 243.275 232.772C238.677 232.466 233.517 232.313 227.795 232.313H221.971C216.249 232.313 210.987 232.466 206.185 232.772C201.485 232.977 197.397 233.845 193.923 235.378C190.449 236.911 187.742 239.312 185.8 242.581C183.961 245.851 182.991 250.551 182.888 256.682H218.446V248.252ZM314.052 314.769L313.899 315.076C310.731 314.769 309.147 312.981 309.147 309.711V300.669H273.59V309.558C273.59 315.893 274.51 320.797 276.349 324.271C278.29 327.745 280.998 330.3 284.472 331.935C287.946 333.467 292.084 334.387 296.886 334.693C301.689 334.898 307.002 335 312.826 335H317.73C323.554 335 328.868 334.898 333.67 334.693C338.472 334.387 342.559 333.467 345.931 331.935C349.405 330.3 352.062 327.745 353.901 324.271C355.842 320.797 356.813 315.893 356.813 309.558C356.813 304.858 356.66 300.975 356.353 297.91C356.149 294.845 355.689 292.188 354.974 289.94C353.85 286.262 352.01 283.35 349.456 281.204C347.004 279.058 344.194 277.372 341.027 276.146C337.859 274.92 334.538 274.001 331.064 273.388C327.692 272.672 324.474 272.008 321.409 271.395C318.446 270.68 315.84 269.811 313.592 268.79C311.344 267.666 309.863 266.082 309.147 264.038V261.28H273.59V264.192C273.59 267.666 273.692 270.68 273.897 273.234C274.203 275.789 274.714 277.934 275.429 279.671C277.166 282.839 279.414 285.342 282.173 287.181C284.932 288.918 287.895 290.298 291.062 291.32C294.23 292.341 297.448 293.159 300.718 293.772C304.09 294.385 307.155 295.049 309.914 295.764C312.775 296.479 315.176 297.45 317.117 298.676C319.161 299.8 320.489 301.486 321.102 303.734V307.872C321.102 309.813 320.489 311.448 319.263 312.777C318.139 314.105 316.402 314.769 314.052 314.769ZM309.147 249.325C309.147 248.814 309.403 248.15 309.914 247.333C310.425 246.515 311.702 244.88 313.745 242.428C314.154 241.917 314.716 241.253 315.431 240.436C316.147 239.618 316.862 238.852 317.577 238.137C318.292 237.319 318.854 236.655 319.263 236.144C319.774 235.531 320.029 235.225 320.029 235.225H321.102V256.682H356.813C356.711 250.551 355.689 245.851 353.747 242.581C351.908 239.312 349.303 236.911 345.931 235.378C342.559 233.845 338.523 232.977 333.823 232.772C329.123 232.466 323.912 232.313 318.19 232.313H312.673C306.951 232.313 301.689 232.466 296.886 232.772C292.186 232.977 288.099 233.794 284.625 235.225C281.151 236.655 278.443 239.005 276.502 242.275C274.561 245.442 273.59 249.938 273.59 255.762V256.682H309.147V249.325ZM356.813 267.41V261.28H321.102V267.41H356.813Z" fill="#E2007A"/>
</svg>
