<svg width="554" height="750" viewBox="0 0 554 750" fill="none" xmlns="http://www.w3.org/2000/svg">
<g clip-path="url(#clip0_9_120)">
<path d="M4.92872 747.794C4.01431 746.4 3.10638 744.999 2.21143 743.591" stroke="#150026" stroke-width="6.8" stroke-miterlimit="10" stroke-linecap="round"/>
<path d="M29.4558 747.794C23.9823 739.887 18.7423 731.81 13.7487 723.591" stroke="#150026" stroke-width="6.8" stroke-miterlimit="10" stroke-linecap="round"/>
<path d="M418.483 22.3738C426.856 22.1338 435.235 22.1273 443.607 22.3609" stroke="#150026" stroke-width="6.8" stroke-miterlimit="10" stroke-linecap="round"/>
<path d="M431.065 2.38724C434.035 2.14722 428.095 2.14073 431.065 2.37427" stroke="#150026" stroke-width="6.8" stroke-miterlimit="10" stroke-linecap="round"/>
<path d="M80.0793 747.794C75.9482 742.585 71.9339 737.285 68.0493 731.888C56.7391 716.228 46.46 699.829 37.277 682.833" stroke="#150026" stroke-width="6.8" stroke-miterlimit="10" stroke-linecap="round"/>
<path d="M406.434 43.2556C422.822 42.3085 439.269 42.302 455.663 43.2297" stroke="#150026" stroke-width="6.8" stroke-miterlimit="10" stroke-linecap="round"/>
<path d="M106.468 747.794C105.449 746.614 104.431 745.427 103.426 744.233" stroke="#150026" stroke-width="6.8" stroke-miterlimit="10" stroke-linecap="round"/>
<path d="M394.119 64.585C417.135 62.4767 440.326 62.3146 463.368 64.1309C464.898 64.2477 466.429 64.3904 467.959 64.5331" stroke="#150026" stroke-width="6.8" stroke-miterlimit="10" stroke-linecap="round"/>
<path d="M91.5776 694.354C80.2544 677.241 70.2412 659.259 61.6354 640.628" stroke="#150026" stroke-width="6.8" stroke-miterlimit="10" stroke-linecap="round"/>
<path d="M397.309 84.7144C424.171 82.3725 451.279 82.8136 478.05 86.0637C478.887 86.1675 479.73 86.2777 480.566 86.3815" stroke="#150026" stroke-width="6.8" stroke-miterlimit="10" stroke-linecap="round"/>
<path d="M74.2686 618.748C75.3256 621.284 76.4022 623.807 77.5112 626.318" stroke="#150026" stroke-width="6.8" stroke-miterlimit="10" stroke-linecap="round"/>
<path d="M134.633 718.11C143.362 728.482 152.636 738.388 162.396 747.801" stroke="#150026" stroke-width="6.8" stroke-miterlimit="10" stroke-linecap="round"/>
<path d="M368.496 108.982C369.423 108.82 370.357 108.652 371.284 108.489L376.576 107.679C378.34 107.419 380.104 107.114 381.875 106.913C385.415 106.472 388.95 105.966 392.51 105.642C406.713 104.156 421 103.41 435.28 103.611C449.561 103.793 463.828 104.733 477.992 106.576C483.206 107.257 488.4 108.048 493.582 108.943" stroke="#150026" stroke-width="6.8" stroke-miterlimit="10" stroke-linecap="round"/>
<path d="M119.431 662.399C108.569 644.741 99.1198 626.195 91.4024 606.941C89.9757 603.38 88.6008 599.792 87.2843 596.192" stroke="#150026" stroke-width="6.8" stroke-miterlimit="10" stroke-linecap="round"/>
<path d="M225.199 747.794C224.381 747.191 223.564 746.594 222.754 745.984" stroke="#150026" stroke-width="6.8" stroke-miterlimit="10" stroke-linecap="round"/>
<path d="M400.863 125.258C424.897 123.163 449.152 123.559 473.102 126.465C484.529 127.84 495.878 129.819 507.104 132.355" stroke="#150026" stroke-width="6.8" stroke-miterlimit="10" stroke-linecap="round"/>
<path d="M100.825 572.735C104.743 585.359 109.379 597.762 114.723 609.854" stroke="#150026" stroke-width="6.8" stroke-miterlimit="10" stroke-linecap="round"/>
<path d="M222.754 745.984C201.852 730.175 182.708 712.038 165.833 691.98" stroke="#150026" stroke-width="6.8" stroke-miterlimit="10" stroke-linecap="round"/>
<path d="M340.739 157.071C351.18 154.061 361.771 151.557 372.465 149.611C403.866 143.87 436.11 142.754 467.823 146.348C485.923 148.391 503.848 151.979 521.345 157.032" stroke="#150026" stroke-width="6.8" stroke-miterlimit="10" stroke-linecap="round"/>
<path d="M115.06 548.065C115.08 548.149 115.099 548.227 115.119 548.311C125.061 588.544 142.765 626.85 167.046 660.433C191.281 694.069 222.144 722.819 257.106 745.037C258.571 745.972 260.044 746.886 261.522 747.794" stroke="#150026" stroke-width="6.8" stroke-miterlimit="10" stroke-linecap="round"/>
<path d="M304.804 747.794C284.454 738.505 265.115 726.984 247.261 713.504" stroke="#150026" stroke-width="6.8" stroke-miterlimit="10" stroke-linecap="round"/>
<path d="M536.592 183.454C520.515 177.512 503.939 172.938 487.091 169.798" stroke="#150026" stroke-width="6.8" stroke-miterlimit="10" stroke-linecap="round"/>
<path d="M438.069 164.713C419.106 164.284 400.104 165.621 381.388 168.702C362.672 171.783 344.247 176.623 326.426 183.123" stroke="#150026" stroke-width="6.8" stroke-miterlimit="10" stroke-linecap="round"/>
<path d="M130.307 521.656C135.515 551.886 145.249 581.33 159.186 608.66" stroke="#150026" stroke-width="6.8" stroke-miterlimit="10" stroke-linecap="round"/>
<path d="M247.261 713.504C230.815 701.088 215.607 687.037 201.969 671.585" stroke="#150026" stroke-width="6.8" stroke-miterlimit="10" stroke-linecap="round"/>
<path d="M194.355 662.581C192.007 659.772 189.809 656.846 187.558 653.966C185.399 651.014 183.174 648.108 181.112 645.085" stroke="#150026" stroke-width="6.8" stroke-miterlimit="10" stroke-linecap="round"/>
<path d="M553.428 212.619L543.875 208.345L541.482 207.274L540.282 206.742L539.063 206.269L534.179 204.374L529.296 202.48C528.479 202.175 527.675 201.832 526.851 201.553L524.367 200.729L514.426 197.427C511.073 196.447 507.7 195.546 504.341 194.598L501.818 193.898L500.554 193.548L499.276 193.262L494.166 192.107L489.055 190.953C488.199 190.771 487.356 190.538 486.494 190.401L483.913 189.947L473.595 188.137L463.205 186.827C459.749 186.314 456.26 186.152 452.777 185.86L447.557 185.458L446.253 185.361L444.943 185.322L442.323 185.244C438.834 185.16 435.345 185.017 431.856 184.978L421.382 185.179L418.762 185.231L416.149 185.406L410.922 185.757L405.695 186.107C403.957 186.256 402.225 186.496 400.487 186.684L395.286 187.288C393.554 187.508 391.81 187.638 390.091 187.962L379.754 189.662C378.022 189.908 376.33 190.323 374.618 190.68L369.494 191.777C367.789 192.146 366.077 192.49 364.377 192.886L359.312 194.222L354.248 195.559L351.718 196.227C350.882 196.467 350.052 196.746 349.222 197.005L339.234 200.164C328.819 203.784 318.598 207.949 308.618 212.639" stroke="#150026" stroke-width="6.8" stroke-miterlimit="10" stroke-linecap="round"/>
<path d="M493.718 747.794C529.562 739.673 563.83 724.616 593.967 703.566" stroke="#150026" stroke-width="6.8" stroke-miterlimit="10" stroke-linecap="round"/>
<path d="M368.379 747.794C336.712 740.652 306.296 727.996 278.89 710.585C248.292 691.175 221.236 666.064 200.056 636.613C178.823 607.22 163.336 573.701 154.64 538.503C150.891 523.388 148.401 507.968 147.162 492.445" stroke="#150026" stroke-width="6.8" stroke-miterlimit="10" stroke-linecap="round"/>
<path d="M379.203 729.365C391.94 731.823 404.832 733.4 417.777 734.133C430.734 734.742 443.717 734.366 456.629 733.192L466.292 732.076C467.907 731.927 469.496 731.596 471.098 731.356L475.897 730.565C477.492 730.292 479.101 730.065 480.69 729.754L485.443 728.735L490.197 727.717L492.577 727.211L494.925 726.588L504.328 724.104C507.435 723.176 510.515 722.164 513.608 721.197L515.924 720.464L517.085 720.095L518.226 719.673L522.785 717.986C525.82 716.838 528.894 715.807 531.851 714.47L540.794 710.656L549.543 706.413C552.494 705.064 555.289 703.41 558.142 701.879L562.41 699.55L563.473 698.966L564.511 698.331L566.586 697.059C569.349 695.36 572.131 693.692 574.868 691.967L582.903 686.485L584.913 685.117C585.581 684.656 586.21 684.143 586.865 683.663L590.743 680.725L594.622 677.786L595.588 677.053L596.522 676.275L598.383 674.711L605.828 668.451L612.955 661.834C615.381 659.681 617.586 657.3 619.862 654.991L623.254 651.507C623.811 650.923 624.395 650.359 624.94 649.756L626.548 647.933L632.975 640.635C633.526 640.038 634.026 639.402 634.525 638.76L636.036 636.859L639.065 633.051L642.093 629.244L644.927 625.286L647.755 621.329L649.169 619.351C649.642 618.696 650.122 618.04 650.543 617.346" stroke="#150026" stroke-width="6.8" stroke-miterlimit="10" stroke-linecap="round"/>
<path d="M271.769 681.023C288.896 693.861 307.528 704.675 327.178 713.16" stroke="#150026" stroke-width="6.8" stroke-miterlimit="10" stroke-linecap="round"/>
<path d="M407.965 206.359C444.729 203.168 482.142 207.709 517.026 219.729" stroke="#150026" stroke-width="6.8" stroke-miterlimit="10" stroke-linecap="round"/>
<path d="M166.838 458.355C166.54 465.251 166.508 472.153 166.754 479.049C167.921 512.697 175.567 546.112 189.186 576.906" stroke="#150026" stroke-width="6.8" stroke-miterlimit="10" stroke-linecap="round"/>
<path d="M288.929 246.839C296.918 241.733 305.174 237.05 313.676 232.846" stroke="#150026" stroke-width="6.8" stroke-miterlimit="10" stroke-linecap="round"/>
<path d="M271.769 681.023C255.796 668.912 241.178 655.023 228.299 639.675" stroke="#150026" stroke-width="6.8" stroke-miterlimit="10" stroke-linecap="round"/>
<path d="M580.918 277.263C568.181 267.364 554.491 258.697 540.075 251.47C525.658 244.244 510.522 238.457 494.957 234.228C463.835 225.756 431.019 223.596 399.041 227.825C383.048 229.933 367.27 233.618 352.004 238.827C336.731 244.023 321.997 250.783 308.066 258.911C294.136 267.039 281.017 276.569 268.974 287.298C266.477 289.523 264.032 291.813 261.626 294.142" stroke="#150026" stroke-width="6.8" stroke-miterlimit="10" stroke-linecap="round"/>
<path d="M409.683 713.141C406.518 712.965 403.386 712.505 400.247 712.116L395.539 711.525C394.754 711.441 393.976 711.292 393.198 711.156L390.863 710.747L386.187 709.93C384.631 709.644 383.061 709.417 381.524 709.034L372.263 706.939C359.993 703.825 347.963 699.81 336.277 694.944" stroke="#150026" stroke-width="6.8" stroke-miterlimit="10" stroke-linecap="round"/>
<path d="M511.002 700.646C497.415 705.317 483.413 708.801 469.224 711.039" stroke="#150026" stroke-width="6.8" stroke-miterlimit="10" stroke-linecap="round"/>
<path d="M261.743 645.701C236.677 621.641 216.846 592.157 204.057 559.832" stroke="#150026" stroke-width="6.8" stroke-miterlimit="10" stroke-linecap="round"/>
<path d="M194.108 411.11C192.682 416.903 191.469 422.741 190.457 428.612C189.517 433.374 189.031 438.2 188.408 443.013C188.051 445.414 187.954 447.84 187.747 450.253C187.571 452.673 187.344 455.086 187.221 457.505L187.014 464.777L186.91 468.41C186.91 469.623 186.949 470.836 186.968 472.049L187.111 479.321C187.111 480.535 187.234 481.741 187.306 482.954L187.552 486.58L187.798 490.207L187.922 492.023L188.129 493.826L188.966 501.053C189.193 503.466 189.627 505.853 190.016 508.247L191.203 515.422C193.168 524.912 195.328 534.39 198.369 543.602" stroke="#150026" stroke-width="6.8" stroke-miterlimit="10" stroke-linecap="round"/>
<path d="M383.639 688.652C367.86 685.22 352.458 680.076 337.788 673.336C323.112 666.596 309.175 658.26 296.276 648.543" stroke="#150026" stroke-width="6.8" stroke-miterlimit="10" stroke-linecap="round"/>
<path d="M593.357 623.918C583.811 634.031 573.344 643.295 562.046 651.416C550.769 659.558 538.726 666.635 526.125 672.532" stroke="#150026" stroke-width="6.8" stroke-miterlimit="10" stroke-linecap="round"/>
<path d="M487.473 686.472L484.548 687.244L483.083 687.627L481.604 687.945L475.69 689.21L472.732 689.846L469.749 690.339L463.776 691.318C461.792 691.688 459.775 691.844 457.777 692.097L451.766 692.791C449.755 692.966 447.745 693.07 445.728 693.219L442.712 693.42C441.707 693.478 440.702 693.582 439.69 693.576" stroke="#150026" stroke-width="6.8" stroke-miterlimit="10" stroke-linecap="round"/>
<path d="M472.142 249.862C486.993 252.625 501.565 256.9 515.548 262.622" stroke="#150026" stroke-width="6.8" stroke-miterlimit="10" stroke-linecap="round"/>
<path d="M523.472 266.079L527.143 267.72L530.729 269.543L534.316 271.366L536.112 272.274L537.007 272.728L537.883 273.228" stroke="#150026" stroke-width="6.8" stroke-miterlimit="10" stroke-linecap="round"/>
<path d="M354.338 259.644C380.474 250.115 408.386 245.515 436.195 246.145" stroke="#150026" stroke-width="6.8" stroke-miterlimit="10" stroke-linecap="round"/>
<path d="M239.284 354.576C247.592 340.739 257.449 327.842 268.52 316.107" stroke="#150026" stroke-width="6.8" stroke-miterlimit="10" stroke-linecap="round"/>
<path d="M207.812 484.829C209.822 514.981 217.974 544.717 231.69 571.652" stroke="#150026" stroke-width="6.8" stroke-miterlimit="10" stroke-linecap="round"/>
<path d="M263.059 617.8C273.059 629.127 284.214 639.435 296.27 648.543" stroke="#150026" stroke-width="6.8" stroke-miterlimit="10" stroke-linecap="round"/>
<path d="M216.113 407.62C219.167 397.345 222.734 387.192 227.287 377.475" stroke="#150026" stroke-width="6.8" stroke-miterlimit="10" stroke-linecap="round"/>
<path d="M209.459 438.622L209.712 436.624L210.056 434.639L210.75 430.675L211.443 426.711C211.547 426.05 211.69 425.395 211.846 424.739L212.287 422.78" stroke="#150026" stroke-width="6.8" stroke-miterlimit="10" stroke-linecap="round"/>
<path d="M247.787 598.352C249.246 600.603 250.945 602.686 252.54 604.839C254.175 606.967 255.725 609.16 257.495 611.177" stroke="#150026" stroke-width="6.8" stroke-miterlimit="10" stroke-linecap="round"/>
<path d="M337.97 288.907C346.874 284.405 356.076 280.513 365.499 277.237C374.955 274.052 384.644 271.593 394.436 269.731L401.817 268.518C403.042 268.291 404.287 268.194 405.526 268.038L409.242 267.61C410.481 267.474 411.719 267.305 412.958 267.202L416.687 266.949L420.416 266.696L422.284 266.572L424.152 266.533L431.629 266.391C434.119 266.417 436.616 266.52 439.106 266.585C441.603 266.605 444.087 266.838 446.571 267.026C449.055 267.234 451.552 267.351 454.016 267.714L461.435 268.648L468.802 269.939C471.267 270.315 473.686 270.951 476.124 271.476L479.775 272.3L480.69 272.508L481.591 272.754L483.394 273.254C485.793 273.929 488.206 274.577 490.599 275.271L497.7 277.626L499.477 278.217C500.067 278.411 500.645 278.658 501.228 278.878L504.717 280.234C507.039 281.136 509.38 282.005 511.637 283.069L518.466 286.124L525.133 289.51C527.383 290.594 529.517 291.885 531.683 293.117L534.925 294.979C535.464 295.297 536.015 295.589 536.54 295.92L538.116 296.932L544.413 300.973C546.482 302.361 548.479 303.86 550.516 305.3L553.557 307.48L556.489 309.808C558.428 311.372 560.419 312.883 562.319 314.492" stroke="#150026" stroke-width="6.8" stroke-miterlimit="10" stroke-linecap="round"/>
<path d="M268.695 347.336C278.656 334.226 290.161 322.29 302.904 311.871" stroke="#150026" stroke-width="6.8" stroke-miterlimit="10" stroke-linecap="round"/>
<path d="M469.561 669.716C497.428 664.319 524.147 653.064 547.416 636.807" stroke="#150026" stroke-width="6.8" stroke-miterlimit="10" stroke-linecap="round"/>
<path d="M394.222 670.021C368.755 665.357 344.222 655.704 322.366 641.822C300.511 627.959 281.185 610.022 266.055 588.985C250.887 567.986 239.823 544.049 233.616 518.905C227.384 493.768 225.99 467.437 229.57 441.787" stroke="#150026" stroke-width="6.8" stroke-miterlimit="10" stroke-linecap="round"/>
<path d="M245.257 387.095C251.548 373.018 259.427 359.661 268.688 347.329" stroke="#150026" stroke-width="6.8" stroke-miterlimit="10" stroke-linecap="round"/>
<path d="M395.156 649.529C403.976 651.228 412.9 652.325 421.862 652.831C430.831 653.252 439.82 652.993 448.763 652.182L455.449 651.41C456.565 651.306 457.667 651.079 458.776 650.91L462.096 650.365C463.205 650.177 464.314 650.015 465.417 649.801L468.711 649.1L472.006 648.4L473.653 648.05L475.281 647.621L481.792 645.902C483.945 645.26 486.072 644.56 488.219 643.891C490.372 643.256 492.467 642.445 494.574 641.666C496.676 640.875 498.803 640.155 500.852 639.234C517.454 632.396 533.045 623.107 546.923 611.709L552.079 607.376L557.014 602.796C558.694 601.304 560.224 599.656 561.794 598.054L564.141 595.641C564.53 595.239 564.932 594.843 565.308 594.428L566.424 593.163L570.873 588.109C572.319 586.397 573.681 584.606 575.088 582.861L577.183 580.227L579.141 577.49C580.438 575.654 581.781 573.857 583.033 571.995" stroke="#150026" stroke-width="6.8" stroke-miterlimit="10" stroke-linecap="round"/>
<path d="M359.138 638.312C345.538 632.442 332.639 624.949 320.778 616.062" stroke="#150026" stroke-width="6.8" stroke-miterlimit="10" stroke-linecap="round"/>
<path d="M520.82 310.34C532.896 317.171 544.199 325.358 554.472 334.68" stroke="#150026" stroke-width="6.8" stroke-miterlimit="10" stroke-linecap="round"/>
<path d="M415.066 287.448C440.514 285.242 466.416 288.382 490.573 296.705" stroke="#150026" stroke-width="6.8" stroke-miterlimit="10" stroke-linecap="round"/>
<path d="M349.786 305.786C328.891 316.114 310.045 330.528 294.558 347.939C279.065 365.338 266.762 385.635 258.863 407.575C250.919 429.494 247.248 452.939 248.085 476.24C248.896 499.535 254.187 522.668 263.61 543.984" stroke="#150026" stroke-width="6.8" stroke-miterlimit="10" stroke-linecap="round"/>
<path d="M320.777 616.062C309.72 607.681 299.597 598.06 290.686 587.435" stroke="#150026" stroke-width="6.8" stroke-miterlimit="10" stroke-linecap="round"/>
<path d="M301.166 371.844C308.819 361.757 317.613 352.552 327.347 344.462" stroke="#150026" stroke-width="6.8" stroke-miterlimit="10" stroke-linecap="round"/>
<path d="M550.646 359.545C546.054 354.439 540.957 349.821 535.781 345.325L531.761 342.114C530.412 341.057 529.102 339.947 527.681 338.981C524.886 336.989 522.137 334.933 519.212 333.142C517.766 332.228 516.339 331.268 514.867 330.379L510.405 327.823L508.174 326.545L505.878 325.377L501.293 323.048C495.067 320.168 488.751 317.457 482.207 315.374C456.176 306.61 427.913 304.917 400.941 309.906" stroke="#150026" stroke-width="6.8" stroke-miterlimit="10" stroke-linecap="round"/>
<path d="M494.594 619.753C479.243 626.337 462.836 630.34 446.234 631.988" stroke="#150026" stroke-width="6.8" stroke-miterlimit="10" stroke-linecap="round"/>
<path d="M427.05 632.617C419.774 632.526 412.524 631.735 405.332 630.651L399.955 629.711C399.054 629.574 398.172 629.354 397.283 629.153L394.624 628.549C391.058 627.829 387.582 626.733 384.067 625.786C382.329 625.254 380.61 624.651 378.878 624.086L376.291 623.224C375.435 622.919 374.592 622.568 373.742 622.244L368.658 620.272L363.671 618.047L361.18 616.931L358.748 615.692L353.884 613.214L349.15 610.503L346.783 609.147L344.487 607.674L339.896 604.723L335.46 601.55L333.242 599.961C332.516 599.416 331.815 598.832 331.095 598.274L326.822 594.875C325.427 593.708 324.085 592.482 322.71 591.281L320.661 589.478C319.973 588.888 319.351 588.22 318.689 587.597L314.779 583.789C313.501 582.498 312.295 581.129 311.043 579.806L309.188 577.808C308.566 577.146 308.008 576.426 307.411 575.732L303.903 571.548C302.768 570.127 301.698 568.655 300.589 567.208L298.942 565.035C298.404 564.302 297.911 563.536 297.392 562.79L294.318 558.282L291.464 553.631L290.044 551.302L288.734 548.908C287.872 547.306 286.97 545.723 286.134 544.108" stroke="#150026" stroke-width="6.8" stroke-miterlimit="10" stroke-linecap="round"/>
<path d="M273.669 511.251C270.848 500.489 269.123 489.435 268.533 478.316" stroke="#150026" stroke-width="6.8" stroke-miterlimit="10" stroke-linecap="round"/>
<path d="M271.873 435.962C276.814 412.797 286.899 390.754 301.16 371.844" stroke="#150026" stroke-width="6.8" stroke-miterlimit="10" stroke-linecap="round"/>
<path d="M403.133 609.607C409.988 610.931 416.934 611.78 423.905 612.176C430.883 612.507 437.874 612.299 444.826 611.67L450.028 611.067C451.759 610.853 453.478 610.522 455.203 610.256C456.065 610.107 456.928 609.984 457.784 609.821L460.346 609.276L462.907 608.732L464.185 608.459L465.449 608.128L470.514 606.792C472.187 606.292 473.848 605.747 475.514 605.229C477.188 604.735 478.815 604.1 480.456 603.496C482.09 602.88 483.744 602.322 485.339 601.602C498.252 596.289 510.379 589.056 521.17 580.195L525.178 576.828L529.017 573.267C530.321 572.106 531.514 570.828 532.733 569.582C533.933 568.317 535.211 567.117 536.333 565.781L539.796 561.85C540.924 560.52 541.981 559.125 543.077 557.769L544.705 555.719L546.229 553.592C547.234 552.164 548.285 550.763 549.258 549.317" stroke="#150026" stroke-width="6.8" stroke-miterlimit="10" stroke-linecap="round"/>
<path d="M375.117 600.882C364.54 596.315 354.507 590.49 345.285 583.575" stroke="#150026" stroke-width="6.8" stroke-miterlimit="10" stroke-linecap="round"/>
<path d="M500.872 345.799C510.262 351.111 519.056 357.482 527.046 364.728" stroke="#150026" stroke-width="6.8" stroke-miterlimit="10" stroke-linecap="round"/>
<path d="M531.514 368.996C544.53 381.912 554.997 397.384 562.137 414.269" stroke="#150026" stroke-width="6.8" stroke-miterlimit="10" stroke-linecap="round"/>
<path d="M418.62 327.992C438.412 326.273 458.562 328.718 477.35 335.192" stroke="#150026" stroke-width="6.8" stroke-miterlimit="10" stroke-linecap="round"/>
<path d="M300.816 527.52C293.481 510.939 289.37 492.951 288.741 474.826C288.092 456.708 290.946 438.466 297.126 421.425C309.441 387.29 335.278 358.267 367.847 342.257" stroke="#150026" stroke-width="6.8" stroke-miterlimit="10" stroke-linecap="round"/>
<path d="M345.285 583.581C336.686 577.062 328.813 569.582 321.88 561.318" stroke="#150026" stroke-width="6.8" stroke-miterlimit="10" stroke-linecap="round"/>
<path d="M509.821 376.657C508.68 375.691 507.486 374.783 506.319 373.848L504.562 372.454L502.739 371.15C501.52 370.287 500.32 369.392 499.075 368.555L495.301 366.129C494.062 365.292 492.726 364.604 491.442 363.839C490.138 363.099 488.861 362.321 487.512 361.672L483.511 359.642L479.412 357.806C468.433 353.038 456.74 349.931 444.846 348.588C443.367 348.367 441.869 348.296 440.378 348.173C438.886 348.062 437.394 347.92 435.896 347.907C434.398 347.868 432.907 347.81 431.408 347.79L426.921 347.874C420.941 348.121 414.975 348.705 409.086 349.795C403.204 350.91 397.394 352.389 391.726 354.297C386.07 356.262 380.552 358.591 375.208 361.296" stroke="#150026" stroke-width="6.8" stroke-miterlimit="10" stroke-linecap="round"/>
<path d="M523.07 389.677C532.506 400.465 539.958 412.959 545.075 426.342" stroke="#150026" stroke-width="6.8" stroke-miterlimit="10" stroke-linecap="round"/>
<path d="M354.163 375.081C346.517 381.335 339.617 388.496 333.638 396.359" stroke="#150026" stroke-width="6.8" stroke-miterlimit="10" stroke-linecap="round"/>
<path d="M551.093 447.775C552.196 453.743 552.799 459.795 553.039 465.854" stroke="#150026" stroke-width="6.8" stroke-miterlimit="10" stroke-linecap="round"/>
<path d="M534.893 534.007C530.01 541.863 524.257 549.18 517.766 555.765" stroke="#150026" stroke-width="6.8" stroke-miterlimit="10" stroke-linecap="round"/>
<path d="M537.571 529.44C545.263 515.733 550.256 500.521 552.169 484.92" stroke="#150026" stroke-width="6.8" stroke-miterlimit="10" stroke-linecap="round"/>
<path d="M500.872 570.043C486.909 579.799 470.878 586.546 454.159 589.789" stroke="#150026" stroke-width="6.8" stroke-miterlimit="10" stroke-linecap="round"/>
<path d="M408.957 589.971C378.347 584.438 350.233 566.585 332.055 541.344C322.956 528.746 316.316 514.384 312.593 499.295C308.851 484.213 308.015 468.417 310.161 453.023" stroke="#150026" stroke-width="6.8" stroke-miterlimit="10" stroke-linecap="round"/>
<path d="M333.638 396.359C328.08 403.754 323.352 411.772 319.578 420.218" stroke="#150026" stroke-width="6.8" stroke-miterlimit="10" stroke-linecap="round"/>
<path d="M515.476 526.612C514.782 527.65 514.037 528.649 513.317 529.667L512.227 531.185L511.066 532.651C510.282 533.624 509.529 534.617 508.725 535.571L506.254 538.38C505.45 539.333 504.542 540.189 503.68 541.098C502.804 541.986 501.955 542.901 501.021 543.731L498.277 546.274L495.411 548.681C487.7 555.012 479.042 560.176 469.82 563.971C451.383 571.6 430.676 573.63 411.11 569.699" stroke="#150026" stroke-width="6.8" stroke-miterlimit="10" stroke-linecap="round"/>
<path d="M523.122 513.145C528.22 502.344 531.333 490.628 532.377 478.731" stroke="#150026" stroke-width="6.8" stroke-miterlimit="10" stroke-linecap="round"/>
<path d="M369.786 551.101C376.375 556.037 383.541 560.195 391.096 563.458" stroke="#150026" stroke-width="6.8" stroke-miterlimit="10" stroke-linecap="round"/>
<path d="M529.731 445.245C530.924 450.156 531.825 455.144 532.305 460.178" stroke="#150026" stroke-width="6.8" stroke-miterlimit="10" stroke-linecap="round"/>
<path d="M480.923 381.257C487.629 385.052 493.913 389.599 499.62 394.782" stroke="#150026" stroke-width="6.8" stroke-miterlimit="10" stroke-linecap="round"/>
<path d="M524.685 430.163C519.588 418.097 512.11 407.049 502.811 397.825" stroke="#150026" stroke-width="6.8" stroke-miterlimit="10" stroke-linecap="round"/>
<path d="M422.174 368.536C436.311 367.31 450.702 369.055 464.12 373.68" stroke="#150026" stroke-width="6.8" stroke-miterlimit="10" stroke-linecap="round"/>
<path d="M385.908 378.727C362.646 390.163 344.189 410.89 335.395 435.274C330.979 447.451 328.942 460.477 329.403 473.418C329.85 486.36 332.795 499.211 338.028 511.056" stroke="#150026" stroke-width="6.8" stroke-miterlimit="10" stroke-linecap="round"/>
<path d="M369.786 551.101C363.645 546.443 358.022 541.104 353.067 535.194" stroke="#150026" stroke-width="6.8" stroke-miterlimit="10" stroke-linecap="round"/>
<path d="M366.109 420.873C369.838 415.949 374.118 411.447 378.846 407.477" stroke="#150026" stroke-width="6.8" stroke-miterlimit="10" stroke-linecap="round"/>
<path d="M512.162 476.331C512.765 469.13 512.305 461.858 511.014 454.755C509.62 447.671 507.402 440.736 504.205 434.256C501.086 427.736 496.987 421.716 492.266 416.254L490.43 414.263L489.509 413.27C489.198 412.946 488.867 412.635 488.543 412.317L486.604 410.429C485.943 409.819 485.255 409.229 484.581 408.632C483.251 407.406 481.799 406.336 480.398 405.194C479.691 404.636 478.939 404.137 478.206 403.598C477.466 403.079 476.753 402.528 475.981 402.054C463.964 394.03 449.768 389.366 435.345 388.594C420.916 387.854 406.324 391.013 393.496 397.669" stroke="#150026" stroke-width="6.8" stroke-miterlimit="10" stroke-linecap="round"/>
<path d="M470.43 541.124C467.006 543.057 463.413 544.672 459.736 546.06C456.072 547.474 452.278 548.558 448.445 549.401" stroke="#150026" stroke-width="6.8" stroke-miterlimit="10" stroke-linecap="round"/>
<path d="M487.026 528.96C490.58 525.574 493.822 521.87 496.721 517.913C499.62 513.956 502.188 509.746 504.315 505.322" stroke="#150026" stroke-width="6.8" stroke-miterlimit="10" stroke-linecap="round"/>
<path d="M417.621 550.173C411 549.057 404.495 547.163 398.36 544.419C392.219 541.701 386.382 538.269 381.103 534.111C375.817 529.966 370.973 525.237 366.861 519.917C365.85 518.575 364.812 517.258 363.891 515.844C363.424 515.143 362.931 514.462 362.484 513.755L361.167 511.607C360.713 510.9 360.311 510.161 359.916 509.421L358.709 507.209L357.607 504.939C357.237 504.186 356.868 503.427 356.556 502.649" stroke="#150026" stroke-width="6.8" stroke-miterlimit="10" stroke-linecap="round"/>
<path d="M354.371 497.135C354.066 496.356 353.833 495.552 353.573 494.754C353.327 493.956 353.054 493.158 352.827 492.354L352.185 489.928C352.082 489.519 351.965 489.117 351.868 488.715L351.608 487.489L351.083 485.03L350.674 482.552L350.473 481.313C350.415 480.898 350.376 480.483 350.324 480.067L350.039 477.57C349.429 470.901 349.617 464.155 350.609 457.531C351.667 450.915 353.463 444.415 356.083 438.245C358.716 432.083 362.095 426.244 366.109 420.88" stroke="#150026" stroke-width="6.8" stroke-miterlimit="10" stroke-linecap="round"/>
<path d="M481.708 503.927C478.348 508.876 474.308 513.378 469.671 517.167C465.047 520.962 459.846 524.063 454.314 526.34C443.251 530.913 430.831 532.139 419.087 529.778" stroke="#150026" stroke-width="6.8" stroke-miterlimit="10" stroke-linecap="round"/>
<path d="M486.293 495.844C489.347 489.363 491.221 482.331 491.844 475.196" stroke="#150026" stroke-width="6.8" stroke-miterlimit="10" stroke-linecap="round"/>
<path d="M407.083 526.035C402.549 524.076 398.25 521.578 394.294 518.62" stroke="#150026" stroke-width="6.8" stroke-miterlimit="10" stroke-linecap="round"/>
<path d="M490.262 455.105C490.975 458.05 491.52 461.041 491.805 464.064" stroke="#150026" stroke-width="6.8" stroke-miterlimit="10" stroke-linecap="round"/>
<path d="M460.975 416.708C465.002 418.985 468.77 421.717 472.194 424.824" stroke="#150026" stroke-width="6.8" stroke-miterlimit="10" stroke-linecap="round"/>
<path d="M474.107 426.653C479.684 432.187 484.172 438.816 487.233 446.056" stroke="#150026" stroke-width="6.8" stroke-miterlimit="10" stroke-linecap="round"/>
<path d="M425.728 409.08C434.21 408.347 442.842 409.391 450.897 412.168" stroke="#150026" stroke-width="6.8" stroke-miterlimit="10" stroke-linecap="round"/>
<path d="M403.963 415.191C390.007 422.054 378.93 434.49 373.651 449.118C371.005 456.422 369.78 464.239 370.059 472.004C370.331 479.769 372.095 487.482 375.234 494.585" stroke="#150026" stroke-width="6.8" stroke-miterlimit="10" stroke-linecap="round"/>
<path d="M394.294 518.62C390.61 515.824 387.238 512.619 384.261 509.078" stroke="#150026" stroke-width="6.8" stroke-miterlimit="10" stroke-linecap="round"/>
<path d="M412.433 433.698C419.528 430.039 427.718 428.547 435.643 429.462C443.581 430.338 451.208 433.666 457.304 438.816" stroke="#150026" stroke-width="6.8" stroke-miterlimit="10" stroke-linecap="round"/>
<path d="M461.727 443.156C464.872 446.75 467.356 450.915 469.062 455.378" stroke="#150026" stroke-width="6.8" stroke-miterlimit="10" stroke-linecap="round"/>
<path d="M398.581 445.381C400.572 442.76 402.874 440.373 405.422 438.291" stroke="#150026" stroke-width="6.8" stroke-miterlimit="10" stroke-linecap="round"/>
<path d="M471.065 462.52C471.435 464.512 471.636 466.529 471.714 468.547" stroke="#150026" stroke-width="6.8" stroke-miterlimit="10" stroke-linecap="round"/>
<path d="M465.67 491.264C464.042 493.885 462.122 496.324 459.963 498.517" stroke="#150026" stroke-width="6.8" stroke-miterlimit="10" stroke-linecap="round"/>
<path d="M471.429 474.904C470.793 480.106 469.127 485.173 466.565 489.746" stroke="#150026" stroke-width="6.8" stroke-miterlimit="10" stroke-linecap="round"/>
<path d="M454.327 503.278C449.671 506.528 444.327 508.779 438.756 509.862" stroke="#150026" stroke-width="6.8" stroke-miterlimit="10" stroke-linecap="round"/>
<path d="M423.685 509.921C413.483 508.072 404.112 502.123 398.049 493.71C395.014 489.513 392.802 484.725 391.563 479.691C390.318 474.664 390.039 469.396 390.753 464.265" stroke="#150026" stroke-width="6.8" stroke-miterlimit="10" stroke-linecap="round"/>
<path d="M393.892 453.334C395.15 450.519 396.726 447.846 398.58 445.381" stroke="#150026" stroke-width="6.8" stroke-miterlimit="10" stroke-linecap="round"/>
<path d="M422.453 488.332C421.817 488.021 421.194 487.664 420.565 487.333L418.795 486.139" stroke="#150026" stroke-width="6.8" stroke-miterlimit="10" stroke-linecap="round"/>
<path d="M447.155 482.312C446.545 483.032 445.974 483.785 445.267 484.42C444.917 484.738 444.612 485.101 444.23 485.387L443.121 486.269C442.758 486.567 442.336 486.795 441.947 487.061C441.551 487.32 441.156 487.579 440.728 487.781L439.47 488.429L438.153 488.955C436.383 489.59 434.534 490.058 432.647 490.174L431.94 490.239H431.233C430.76 490.233 430.287 490.246 429.82 490.22C428.879 490.122 427.939 490.064 427.018 489.837" stroke="#150026" stroke-width="6.8" stroke-miterlimit="10" stroke-linecap="round"/>
<path d="M415.812 456.455C419.32 452.426 424.476 449.909 429.8 449.598" stroke="#150026" stroke-width="6.8" stroke-miterlimit="10" stroke-linecap="round"/>
<path d="M450.76 474.956C452.148 469.675 451.24 463.863 448.361 459.231C445.507 454.586 440.728 451.174 435.397 450.032" stroke="#150026" stroke-width="6.8" stroke-miterlimit="10" stroke-linecap="round"/>
<path d="M411.668 476.007C411.013 474.035 410.74 471.952 410.734 469.883C410.701 468.845 410.838 467.813 410.948 466.782L411.253 465.258C411.337 464.745 411.538 464.259 411.674 463.759" stroke="#150026" stroke-width="6.8" stroke-miterlimit="10" stroke-linecap="round"/>
<path d="M418.801 486.139L417.751 485.257L417.225 484.816L416.746 484.329L415.786 483.35L414.93 482.28L414.502 481.741L414.132 481.164C413.886 480.781 413.626 480.398 413.393 480.009C412.984 479.192 412.517 478.4 412.212 477.537" stroke="#150026" stroke-width="6.8" stroke-miterlimit="10" stroke-linecap="round"/>
</g>
<defs>
<clipPath id="clip0_9_120">
<rect width="862" height="750" fill="white"/>
</clipPath>
</defs>
</svg>
