<svg width="949" height="111" viewBox="0 0 949 111" fill="none" xmlns="http://www.w3.org/2000/svg">
<path d="M43.7742 0.0181904H38.402C32.7314 0.0181904 27.5085 0.167415 22.8825 0.465864C18.1072 0.764323 14.0781 1.65968 10.7951 3.15194C7.51212 4.64421 4.82604 7.18106 3.03533 10.464C1.24461 13.747 0.349247 18.5223 0.349247 24.6406V75.2284C0.349247 81.4959 1.24461 86.2712 3.03533 89.5541C4.82604 92.9864 7.51212 95.5232 10.7951 97.0155C14.0781 98.5077 18.1072 99.4031 22.8825 99.7015C27.5085 100 32.7314 100 38.402 100H43.7742C49.4448 100 54.5185 100 59.2937 99.7015C63.9198 99.4031 67.9489 98.5077 71.3811 97.0155C74.6641 95.5232 77.3502 92.9864 79.1409 89.5541C80.9316 86.2712 81.9762 81.4959 81.9762 75.2284V24.6406C81.9762 18.5223 80.9316 13.747 79.1409 10.464C77.3502 7.18106 74.6641 4.64421 71.3811 3.15194C67.9489 1.65968 63.9198 0.764323 59.2937 0.465864C54.5185 0.167415 49.4448 0.0181904 43.7742 0.0181904ZM47.2064 2.85349V75.3776C47.2064 78.9591 45.2664 80.6005 41.3866 80.6005H40.7897C36.9098 80.6005 34.9698 78.9591 34.9698 75.3776V16.5823C34.9698 16.1347 35.119 15.5378 35.7159 14.6424C36.1636 13.8963 37.3574 12.2548 39.4466 9.86714C39.7451 9.41946 40.342 8.82256 41.0881 7.9272C41.685 7.18106 42.4311 6.43493 43.1773 5.6888C43.7742 4.94267 44.3711 4.34576 44.8188 3.74885L45.5649 2.85349H47.2064ZM170.257 26.879C170.257 30.6096 169.809 33.7434 168.913 36.2802C168.018 38.9663 166.675 41.0555 165.183 42.8462C163.691 44.6369 161.9 45.98 159.811 47.0246C157.722 48.0691 155.632 48.8153 153.394 49.4122C155.185 50.0091 157.125 50.7552 159.065 51.6506C160.855 52.5459 162.646 53.7398 164.138 54.9336C165.631 56.1274 166.974 57.6197 168.167 59.1119C169.212 60.7534 169.958 62.5441 170.257 64.6333V100H135.487V2.85349L134.741 3.74885C134.144 4.34576 133.547 4.94267 132.801 5.6888C132.055 6.43493 131.308 7.18106 130.711 7.9272C129.965 8.82256 129.368 9.41946 129.07 9.86714C126.981 12.2548 125.787 13.8963 125.339 14.6424C124.742 15.5378 124.593 16.1347 124.593 16.5823V100H89.9726V0.0181904H133.696C139.367 0.0181904 144.44 0.167415 148.917 0.465864C153.394 0.764323 157.274 1.65968 160.408 3.15194C163.541 4.64421 165.929 7.18106 167.72 10.464C169.361 13.747 170.257 18.5223 170.257 24.6406V26.879ZM245.436 80.6005V100H178.284V80.6005H194.401V36.7279C194.401 35.2357 194.699 33.5942 195.446 31.8035C196.042 30.162 196.938 28.5205 197.833 26.879C198.729 25.3867 199.773 23.8944 200.967 22.5514C202.161 21.3576 203.205 20.313 204.101 19.4176H178.284V0.0181904H245.436V19.4176H229.021V80.6005H245.436ZM298.696 2.85349L297.95 3.74885C297.503 4.34576 296.906 4.94267 296.309 5.6888C295.563 6.43493 294.816 7.18106 294.22 7.9272C293.473 8.82256 292.876 9.41946 292.578 9.86714C290.489 12.2548 289.295 13.8963 288.847 14.6424C288.25 15.5378 288.101 16.1347 288.101 16.5823V75.3776C288.101 78.9591 290.041 80.6005 293.921 80.6005H299.741V44.4877H334.511V110.147H299.741V100H291.533C285.863 100 280.64 100 276.014 99.7015C271.239 99.4031 267.21 98.5077 263.927 97.0155C260.644 95.5232 257.957 92.9864 256.167 89.5541C254.376 86.2712 253.481 81.4959 253.481 75.2284V24.6406C253.481 18.5223 254.376 13.747 256.167 10.464C257.957 7.18106 260.644 4.64421 263.927 3.15194C267.21 1.65968 271.239 0.764323 276.014 0.465864C280.64 0.167415 285.863 0.0181904 291.533 0.0181904H296.906C302.576 0.0181904 307.65 0.167415 312.276 0.465864C316.902 0.764323 320.931 1.65968 324.214 3.15194C327.497 4.64421 330.034 7.18106 331.825 10.464C333.615 13.747 334.511 18.5223 334.511 24.6406V33.4449H299.741V2.85349H298.696ZM409.673 80.6005V100H342.521V80.6005H358.638V36.7279C358.638 35.2357 358.936 33.5942 359.682 31.8035C360.279 30.162 361.174 28.5205 362.07 26.879C362.965 25.3867 364.01 23.8944 365.204 22.5514C366.397 21.3576 367.442 20.313 368.337 19.4176H342.521V0.0181904H409.673V19.4176H393.258V80.6005H409.673ZM464.574 2.85349H462.933L462.187 3.74885C461.739 4.34576 461.142 4.94267 460.545 5.6888C459.799 6.43493 459.053 7.18106 458.456 7.9272C457.71 8.82256 457.113 9.41946 456.815 9.86714C454.726 12.2548 453.532 13.8963 453.084 14.6424C452.487 15.5378 452.338 16.1347 452.338 16.5823V100H417.717V0.0181904H461.142C466.813 0.0181904 471.887 0.167415 476.662 0.465864C481.288 0.764323 485.317 1.65968 488.749 3.15194C492.032 4.64421 494.718 7.18106 496.509 10.464C498.3 13.747 499.344 18.5223 499.344 24.6406V100H464.574V2.85349ZM590.164 80.3021L590.015 80.6005C586.881 80.3021 585.389 78.6606 585.389 75.3776V66.5732H550.768V75.2284C550.768 81.4959 551.663 86.2712 553.454 89.5541C555.245 92.9864 557.931 95.5232 561.363 97.0155C564.646 98.5077 568.675 99.4031 573.45 99.7015C578.076 100 583.299 100 588.97 100H593.745C599.416 100 604.49 100 609.265 99.7015C613.891 99.4031 617.92 98.5077 621.203 97.0155C624.486 95.5232 627.172 92.9864 628.963 89.5541C630.753 86.2712 631.798 81.4959 631.798 75.2284C631.798 70.7516 631.649 66.8717 631.35 63.5887C631.052 60.3057 630.604 57.6197 630.007 55.3812C628.813 51.7998 627.023 49.1137 624.635 47.0246C622.247 44.9354 619.412 43.4431 616.428 42.2493C613.294 41.0555 610.011 40.1601 606.728 39.5632C603.445 38.9663 600.311 38.3694 597.327 37.7725C594.342 37.1756 591.805 36.4295 589.716 35.3849C587.478 34.4895 585.985 32.9973 585.389 30.9081V16.5823C585.389 16.1347 585.538 15.5378 586.135 14.6424C586.582 13.8963 587.776 12.2548 589.865 9.86714C590.164 9.41946 590.761 8.82256 591.507 7.9272C592.104 7.18106 592.85 6.43493 593.596 5.6888C594.193 4.94267 594.79 4.34576 595.237 3.74885L595.984 2.85349H597.028V33.4449H631.798V24.6406C631.798 18.5223 630.903 13.747 629.112 10.464C627.321 7.18106 624.784 4.64421 621.501 3.15194C618.218 1.65968 614.189 0.764323 609.563 0.465864C604.937 0.167415 599.863 0.0181904 594.193 0.0181904H588.821C583.15 0.0181904 578.076 0.167415 573.45 0.465864C568.824 0.764323 564.795 1.51045 561.512 2.85349C558.08 4.34576 555.394 6.58416 553.603 9.71792C551.663 12.8517 550.768 17.1792 550.768 22.8499V31.0573C550.768 34.4895 550.768 37.4741 551.066 39.8617C551.365 42.3985 551.813 44.4877 552.559 46.1292C554.2 49.263 556.439 51.6506 559.125 53.4413C561.811 55.232 564.646 56.5751 567.78 57.4704C570.764 58.515 573.898 59.2611 577.181 59.858C580.464 60.455 583.449 61.2011 586.135 61.798C588.821 62.5441 591.208 63.4395 593.148 64.6333C595.088 65.8271 596.431 67.4686 597.028 69.5578V73.5869C597.028 75.5268 596.431 77.1683 595.237 78.3621C594.044 79.7052 592.402 80.3021 590.164 80.3021ZM655.925 100V36.7279C655.925 35.2357 656.223 33.5942 656.969 31.8035C657.566 30.162 658.462 28.5205 659.357 26.879C660.252 25.3867 661.297 23.8944 662.491 22.5514C663.685 21.3576 664.729 20.313 665.625 19.4176H639.808V0.0181904H707.707V19.4176H690.545V100H655.925ZM759.158 0.0181904H753.786C748.115 0.0181904 742.893 0.167415 738.266 0.465864C733.491 0.764323 729.462 1.65968 726.179 3.15194C722.896 4.64421 720.21 7.18106 718.419 10.464C716.629 13.747 715.733 18.5223 715.733 24.6406V75.2284C715.733 81.4959 716.629 86.2712 718.419 89.5541C720.21 92.9864 722.896 95.5232 726.179 97.0155C729.462 98.5077 733.491 99.4031 738.266 99.7015C742.893 100 748.115 100 753.786 100H759.158C764.829 100 769.903 100 774.678 99.7015C779.304 99.4031 783.333 98.5077 786.765 97.0155C790.048 95.5232 792.734 92.9864 794.525 89.5541C796.316 86.2712 797.36 81.4959 797.36 75.2284V24.6406C797.36 18.5223 796.316 13.747 794.525 10.464C792.734 7.18106 790.048 4.64421 786.765 3.15194C783.333 1.65968 779.304 0.764323 774.678 0.465864C769.903 0.167415 764.829 0.0181904 759.158 0.0181904ZM762.59 2.85349V75.3776C762.59 78.9591 760.65 80.6005 756.771 80.6005H756.174C752.294 80.6005 750.354 78.9591 750.354 75.3776V16.5823C750.354 16.1347 750.503 15.5378 751.1 14.6424C751.548 13.8963 752.741 12.2548 754.831 9.86714C755.129 9.41946 755.726 8.82256 756.472 7.9272C757.069 7.18106 757.815 6.43493 758.561 5.6888C759.158 4.94267 759.755 4.34576 760.203 3.74885L760.949 2.85349H762.59ZM885.641 26.879C885.641 30.6096 885.193 33.7434 884.298 36.2802C883.402 38.9663 882.059 41.0555 880.567 42.8462C879.075 44.6369 877.284 45.98 875.195 47.0246C873.106 48.0691 871.016 48.8153 868.778 49.4122C870.569 50.0091 872.509 50.7552 874.449 51.6506C876.239 52.5459 878.03 53.7398 879.522 54.9336C881.015 56.1274 882.358 57.6197 883.551 59.1119C884.596 60.7534 885.342 62.5441 885.641 64.6333V100H850.871V2.85349L850.125 3.74885C849.528 4.34576 848.931 4.94267 848.185 5.6888C847.439 6.43493 846.692 7.18106 846.096 7.9272C845.349 8.82256 844.753 9.41946 844.454 9.86714C842.365 12.2548 841.171 13.8963 840.723 14.6424C840.126 15.5378 839.977 16.1347 839.977 16.5823V100H805.357V0.0181904H849.08C854.751 0.0181904 859.824 0.167415 864.301 0.465864C868.778 0.764323 872.658 1.65968 875.792 3.15194C878.925 4.64421 881.313 7.18106 883.104 10.464C884.745 13.747 885.641 18.5223 885.641 24.6406V26.879ZM933.064 80.3021C935.303 80.3021 936.944 79.7052 938.138 78.3621C939.332 77.1683 939.929 75.5268 939.929 73.5869V69.5578C939.332 67.4686 937.989 65.8271 936.049 64.6333C934.109 63.4395 931.721 62.5441 929.035 61.798C926.349 61.2011 923.365 60.455 920.082 59.858C916.799 59.2611 913.665 58.515 910.68 57.4704C907.547 56.5751 904.711 55.232 902.025 53.4413C899.339 51.6506 897.101 49.263 895.459 46.1292C894.713 44.4877 894.265 42.3985 893.967 39.8617C893.669 37.4741 893.669 34.4895 893.669 31.0573V0.0181904H928.289V34.1911C928.886 36.2802 930.378 38.2202 932.467 40.1601C934.557 42.1001 936.944 43.4431 939.929 44.04V0.0181904H974.699V75.2284C974.699 81.4959 973.654 86.2712 971.863 89.5541C970.073 92.9864 967.386 95.5232 964.103 97.0155C960.82 98.5077 956.791 99.4031 952.165 99.7015C947.39 100 942.316 100 936.646 100H931.871C926.2 100 920.977 100 916.351 99.7015C911.576 99.4031 907.547 98.5077 904.264 97.0155C900.831 95.5232 898.145 92.9864 896.355 89.5541C894.564 86.2712 893.669 81.4959 893.669 75.2284V66.5732H928.289V75.3776C928.289 78.6606 929.781 80.3021 932.915 80.6005L933.064 80.3021Z" fill="#23053C"/>
</svg>
