<svg width="1202" height="138" viewBox="0 0 1202 138" fill="none" xmlns="http://www.w3.org/2000/svg">
<path opacity="0.3" d="M3.09828 4.47736V64.6357H48.0242V32.6284C48.0242 24.7229 46.6745 18.5529 44.3607 14.3109C42.0469 10.069 38.5763 6.79113 34.3343 4.86298C29.8996 2.93484 24.6936 1.77795 18.7163 1.39231C12.5462 1.00669 5.99051 0.813874 -1.33646 0.813874H-8.27781C-15.6048 0.813874 -22.3533 1.00669 -28.3306 1.39231C-34.5007 1.77795 -39.7067 2.93484 -43.9486 4.86298C-48.1905 6.79113 -51.6612 10.069 -53.975 14.3109C-56.2888 18.5529 -57.4457 24.7229 -57.4457 32.6284V64.6357H-12.7126V22.2164C-12.7126 21.6379 -12.5197 20.8666 -11.7485 19.7098C-11.17 18.7457 -9.62752 16.6247 -6.9281 13.5397C-6.54247 12.9612 -5.77121 12.19 -4.80714 11.0331C-4.03588 10.069 -3.0718 9.10492 -2.10773 8.14085C-1.33646 7.17677 -0.565202 6.40551 0.0132416 5.63425L0.977316 4.47736H3.09828ZM-57.06 106.091H47.4458C47.6386 104.934 47.8314 103.777 47.8314 103.006V101.463C47.8314 101.078 47.8314 100.499 48.0242 99.728H2.90547C2.13421 103.199 -0.179577 104.934 -4.42151 104.934H-5.19277C-9.82033 104.934 -12.3269 103.199 -12.7126 99.728H-57.4457C-57.4457 100.885 -57.4457 102.042 -57.4457 103.006C-57.4457 104.163 -57.2528 105.127 -57.06 106.091ZM-53.975 116.503H44.3607C45.132 114.96 45.9032 113.225 46.4817 111.104H-56.096C-55.9031 112.261 -55.5175 113.225 -55.1319 113.996C-54.7463 114.96 -54.3606 115.732 -53.975 116.503ZM3.09828 75.0477H48.0242V65.5997H3.09828V75.0477ZM-57.4457 75.0477H-12.7126V65.5997H-57.4457V75.0477ZM3.09828 85.4597H48.0242V76.9758H3.09828V85.4597ZM-57.4457 85.4597H-12.7126V76.9758H-57.4457V85.4597ZM-41.6348 126.915H32.0206C34.72 125.951 37.4194 124.408 39.7332 122.48H-49.3474C-47.2265 124.408 -44.7199 125.951 -41.6348 126.915ZM3.09828 95.6789H48.0242V88.3519H3.09828V95.6789ZM-57.4457 95.6789H-12.7126V88.3519H-57.4457V95.6789ZM162.091 35.5206V32.6284C162.091 24.7229 160.934 18.5529 158.813 14.3109C156.499 10.069 153.414 6.79113 149.365 4.86298C145.316 2.93484 140.303 1.77795 134.518 1.39231C128.734 1.00669 122.178 0.813874 114.851 0.813874H58.3564V64.6357H103.089V22.2164C103.089 21.6379 103.282 20.8666 104.054 19.7098C104.632 18.7457 106.175 16.6247 108.874 13.5397C109.26 12.9612 110.031 12.19 110.995 11.0331C111.766 10.069 112.73 9.10492 113.694 8.14085C114.658 7.17677 115.43 6.40551 116.201 5.63425L117.165 4.47736V64.6357H140.303C143.195 63.8644 145.894 62.9003 148.594 61.5506C151.293 60.2009 153.607 58.4656 155.535 56.1518C157.463 53.838 159.199 51.1386 160.356 47.6679C161.512 44.3901 162.091 40.341 162.091 35.5206ZM58.3564 75.0477H103.089V65.5997H58.3564V75.0477ZM58.3564 85.4597H103.089V76.9758H58.3564V85.4597ZM159.199 76.9758H117.165V85.4597H162.091V84.3028C161.705 81.6034 160.741 79.2896 159.199 76.9758ZM117.165 95.6789H162.091V88.3519H117.165V95.6789ZM143.195 65.5997H117.165V75.0477H157.849C155.921 72.9267 153.8 70.9986 151.293 69.4561C148.594 67.9135 145.894 66.7566 143.195 65.5997ZM58.3564 95.6789H103.089V88.3519H58.3564V95.6789ZM117.165 106.091H162.091V99.728H117.165V106.091ZM58.3564 106.091H103.089V99.728H58.3564V106.091ZM117.165 116.503H162.091V111.104H117.165V116.503ZM58.3564 116.503H103.089V111.104H58.3564V116.503ZM117.165 126.915H162.091V122.48H117.165V126.915ZM58.3564 126.915H103.089V122.48H58.3564V126.915ZM193.288 64.6357H238.021V25.8798H259.231V0.813874H172.464V25.8798H205.821C204.664 27.0367 203.314 28.3864 201.772 29.9289C200.229 31.6643 198.879 33.5924 197.723 35.5206C196.566 37.6416 195.409 39.7625 194.637 41.8835C193.673 44.1973 193.288 46.3182 193.288 48.2464V64.6357ZM172.464 116.503H259.231V111.104H172.464V116.503ZM193.288 75.0477H238.021V65.5997H193.288V75.0477ZM172.464 126.915H259.231V122.48H172.464V126.915ZM193.288 85.4597H238.021V76.9758H193.288V85.4597ZM259.231 104.934H238.021V99.728H193.288V104.934H172.464V106.091H259.231V104.934ZM193.288 95.6789H238.021V88.3519H193.288V95.6789ZM328.047 4.47736H329.397V44.0045H374.323V32.6284C374.323 24.7229 373.166 18.5529 370.852 14.3109C368.539 10.069 365.261 6.79113 361.019 4.86298C356.777 2.93484 351.571 1.77795 345.594 1.39231C339.616 1.00669 333.061 0.813874 325.734 0.813874H318.792C311.465 0.813874 304.717 1.00669 298.74 1.39231C292.569 1.77795 287.363 2.93484 283.122 4.86298C278.88 6.79113 275.409 10.069 273.095 14.3109C270.781 18.5529 269.624 24.7229 269.624 32.6284V64.6357H314.358V22.2164C314.358 21.6379 314.55 20.8666 315.322 19.7098C315.9 18.7457 317.443 16.6247 320.142 13.5397C320.528 12.9612 321.299 12.19 322.263 11.0331C323.034 10.069 323.998 9.10492 324.962 8.14085C325.734 7.17677 326.505 6.40551 327.083 5.63425L328.047 4.47736ZM314.358 99.728H269.624C269.624 100.885 269.624 102.042 269.624 103.006C269.624 104.163 269.817 105.127 270.01 106.091H374.323V99.728H329.397V104.934H321.877C317.25 104.934 314.743 103.199 314.358 99.728ZM273.095 116.503H374.323V111.104H270.974C271.167 112.261 271.553 113.225 271.938 113.996C272.324 114.96 272.71 115.732 273.095 116.503ZM329.397 75.0477H374.323V65.5997H329.397V75.0477ZM269.624 75.0477H314.358V65.5997H269.624V75.0477ZM285.435 126.915H374.323V122.48H277.723C279.844 124.408 282.35 125.951 285.435 126.915ZM329.397 85.4597H374.323V76.9758H329.397V85.4597ZM269.624 85.4597H314.358V76.9758H269.624V85.4597ZM329.397 95.6789H374.323V88.3519H329.397V95.6789ZM269.624 95.6789H314.358V88.3519H269.624V95.6789ZM329.397 64.6357H374.323V58.2728H329.397V64.6357ZM329.397 137.327H374.323V133.856H329.397V137.327ZM405.497 64.6357H450.23V25.8798H471.44V0.813874H384.673V25.8798H418.03C416.873 27.0367 415.524 28.3864 413.981 29.9289C412.439 31.6643 411.089 33.5924 409.932 35.5206C408.775 37.6416 407.618 39.7625 406.847 41.8835C405.883 44.1973 405.497 46.3182 405.497 48.2464V64.6357ZM384.673 116.503H471.44V111.104H384.673V116.503ZM405.497 75.0477H450.23V65.5997H405.497V75.0477ZM384.673 126.915H471.44V122.48H384.673V126.915ZM405.497 85.4597H450.23V76.9758H405.497V85.4597ZM471.44 104.934H450.23V99.728H405.497V104.934H384.673V106.091H471.44V104.934ZM405.497 95.6789H450.23V88.3519H405.497V95.6789ZM542.378 4.47736V64.6357H587.304V32.6284C587.304 24.7229 585.954 18.5529 583.64 14.3109C581.327 10.069 577.856 6.79113 573.614 4.86298C569.179 2.93484 563.973 1.77795 557.996 1.39231C551.826 1.00669 545.27 0.813874 537.943 0.813874H481.834V64.6357H526.567V22.2164C526.567 21.6379 526.76 20.8666 527.531 19.7098C528.11 18.7457 529.652 16.6247 532.352 13.5397C532.737 12.9612 533.509 12.19 534.473 11.0331C535.244 10.069 536.208 9.10492 537.172 8.14085C537.943 7.17677 538.715 6.40551 539.293 5.63425L540.257 4.47736H542.378ZM542.378 75.0477H587.304V65.5997H542.378V75.0477ZM481.834 75.0477H526.567V65.5997H481.834V75.0477ZM542.378 85.4597H587.304V76.9758H542.378V85.4597ZM481.834 85.4597H526.567V76.9758H481.834V85.4597ZM542.378 95.6789H587.304V88.3519H542.378V95.6789ZM481.834 95.6789H526.567V88.3519H481.834V95.6789ZM542.378 106.091H587.304V99.728H542.378V106.091ZM481.834 106.091H526.567V99.728H481.834V106.091ZM542.378 116.503H587.304V111.104H542.378V116.503ZM481.834 116.503H526.567V111.104H481.834V116.503ZM542.378 126.915H587.304V122.48H542.378V126.915ZM481.834 126.915H526.567V122.48H481.834V126.915ZM698.481 40.7266V22.2164C698.481 21.6379 698.674 20.8666 699.445 19.7098C700.024 18.7457 701.566 16.6247 704.266 13.5397C704.651 12.9612 705.423 12.19 706.387 11.0331C707.158 10.069 708.122 9.10492 709.086 8.14085C709.858 7.17677 710.629 6.40551 711.207 5.63425L712.171 4.47736H713.521V44.0045H758.447V32.6284C758.447 24.7229 757.29 18.5529 754.976 14.3109C752.662 10.069 749.385 6.79113 745.143 4.86298C740.901 2.93484 735.695 1.77795 729.717 1.39231C723.74 1.00669 717.184 0.813874 709.858 0.813874H702.916C695.589 0.813874 689.033 1.00669 683.056 1.39231C677.079 1.77795 671.873 2.74202 667.631 4.47736C663.196 6.40551 659.726 9.29773 657.412 13.3469C654.905 17.396 653.748 22.9876 653.748 30.3146V40.9194C653.748 45.3542 653.748 49.2105 654.134 52.2955C654.52 55.5734 655.098 58.2728 656.062 60.3937C656.448 61.3578 657.026 62.1291 657.412 62.9003C657.797 63.6716 658.376 64.25 658.954 64.6357H752.084C749.77 61.7435 747.071 59.4297 743.793 57.6943C740.322 56.1518 736.852 54.8021 733.188 53.6452C729.525 52.6811 725.861 51.9099 722.005 51.3314C718.149 50.753 714.678 49.9817 711.593 49.2105C708.315 48.4392 705.423 47.4751 703.109 46.1254C700.795 44.9685 699.253 43.0404 698.481 40.7266ZM756.133 72.3483C755.748 71.1914 755.169 70.0345 754.591 68.8776C754.012 67.7207 753.434 66.7566 752.855 65.5997H659.726C661.847 67.9135 664.353 69.8417 667.053 71.3842C669.752 72.9267 672.644 74.0836 675.729 75.0477H756.712C756.519 74.6621 756.326 74.0836 756.326 73.698C756.326 73.3124 756.133 72.9267 756.133 72.3483ZM704.651 104.548L704.459 104.934C700.988 104.741 698.867 103.006 698.481 99.728H653.748C653.748 100.885 653.748 102.042 653.748 103.006C653.748 104.163 653.941 105.127 654.134 106.091H757.868C758.061 104.934 758.254 103.777 758.254 103.006V101.463C758.254 101.078 758.254 100.499 758.447 99.728H712.75C711.978 101.271 711.014 102.427 709.858 103.199C708.508 104.163 706.772 104.548 704.651 104.548ZM657.219 116.503H754.783C755.555 114.96 756.326 113.225 756.904 111.104H655.291C655.484 112.261 655.869 113.418 656.255 114.189C656.641 115.153 656.833 115.924 657.219 116.503ZM757.097 76.9758H682.671C688.069 78.3255 693.083 79.4824 698.096 80.4465C703.109 81.6034 706.965 83.1459 710.05 85.4597H758.061C757.868 83.9172 757.676 82.5675 757.676 81.025C757.483 79.6753 757.29 78.3255 757.097 76.9758ZM669.559 126.915H742.636C745.721 125.951 748.228 124.408 750.156 122.48H662.039C663.968 124.408 666.474 125.951 669.559 126.915ZM758.254 88.3519H712.557C712.75 88.9304 712.943 89.316 713.135 89.7016C713.135 90.0873 713.328 90.4729 713.521 90.6657V95.6789H758.447V92.0154V90.2801C758.447 89.7016 758.254 89.1232 758.254 88.3519ZM653.748 95.6789H698.481V88.3519H653.748V95.6789ZM789.621 64.6357H834.354V25.8798H856.528V0.813874H768.797V25.8798H802.154C800.997 27.0367 799.648 28.3864 798.105 29.9289C796.563 31.6643 795.213 33.5924 794.056 35.5206C792.899 37.6416 791.742 39.7625 790.971 41.8835C790.007 44.1973 789.621 46.3182 789.621 48.2464V64.6357ZM789.621 75.0477H834.354V65.5997H789.621V75.0477ZM789.621 85.4597H834.354V76.9758H789.621V85.4597ZM789.621 95.6789H834.354V88.3519H789.621V95.6789ZM789.621 106.091H834.354V99.728H789.621V106.091ZM789.621 116.503H834.354V111.104H789.621V116.503ZM789.621 126.915H834.354V122.48H789.621V126.915ZM927.443 4.47736V64.6357H972.369V32.6284C972.369 24.7229 971.02 18.5529 968.706 14.3109C966.392 10.069 962.921 6.79113 958.679 4.86298C954.245 2.93484 949.039 1.77795 943.061 1.39231C936.891 1.00669 930.336 0.813874 923.009 0.813874H916.067C908.74 0.813874 901.992 1.00669 896.015 1.39231C889.844 1.77795 884.638 2.93484 880.396 4.86298C876.155 6.79113 872.684 10.069 870.37 14.3109C868.056 18.5529 866.899 24.7229 866.899 32.6284V64.6357H911.633V22.2164C911.633 21.6379 911.825 20.8666 912.597 19.7098C913.175 18.7457 914.718 16.6247 917.417 13.5397C917.803 12.9612 918.574 12.19 919.538 11.0331C920.309 10.069 921.273 9.10492 922.237 8.14085C923.009 7.17677 923.78 6.40551 924.358 5.63425L925.322 4.47736H927.443ZM867.285 106.091H971.791C971.984 104.934 972.176 103.777 972.176 103.006V101.463C972.176 101.078 972.176 100.499 972.369 99.728H927.251C926.479 103.199 924.166 104.934 919.924 104.934H919.152C914.525 104.934 912.018 103.199 911.633 99.728H866.899C866.899 100.885 866.899 102.042 866.899 103.006C866.899 104.163 867.092 105.127 867.285 106.091ZM870.37 116.503H968.706C969.477 114.96 970.248 113.225 970.827 111.104H868.249C868.442 112.261 868.828 113.225 869.213 113.996C869.599 114.96 869.984 115.732 870.37 116.503ZM927.443 75.0477H972.369V65.5997H927.443V75.0477ZM866.899 75.0477H911.633V65.5997H866.899V75.0477ZM927.443 85.4597H972.369V76.9758H927.443V85.4597ZM866.899 85.4597H911.633V76.9758H866.899V85.4597ZM882.71 126.915H956.366C959.065 125.951 961.764 124.408 964.078 122.48H874.998C877.119 124.408 879.625 125.951 882.71 126.915ZM927.443 95.6789H972.369V88.3519H927.443V95.6789ZM866.899 95.6789H911.633V88.3519H866.899V95.6789ZM1086.44 35.5206V32.6284C1086.44 24.7229 1085.28 18.5529 1083.16 14.3109C1080.84 10.069 1077.76 6.79113 1073.71 4.86298C1069.66 2.93484 1064.65 1.77795 1058.86 1.39231C1053.08 1.00669 1046.52 0.813874 1039.2 0.813874H982.701V64.6357H1027.43V22.2164C1027.43 21.6379 1027.63 20.8666 1028.4 19.7098C1028.98 18.7457 1030.52 16.6247 1033.22 13.5397C1033.6 12.9612 1034.38 12.19 1035.34 11.0331C1036.11 10.069 1037.08 9.10492 1038.04 8.14085C1039 7.17677 1039.77 6.40551 1040.55 5.63425L1041.51 4.47736V64.6357H1064.65C1067.54 63.8644 1070.24 62.9003 1072.94 61.5506C1075.64 60.2009 1077.95 58.4656 1079.88 56.1518C1081.81 53.838 1083.54 51.1386 1084.7 47.6679C1085.86 44.3901 1086.44 40.341 1086.44 35.5206ZM982.701 75.0477H1027.43V65.5997H982.701V75.0477ZM982.701 85.4597H1027.43V76.9758H982.701V85.4597ZM1083.54 76.9758H1041.51V85.4597H1086.44V84.3028C1086.05 81.6034 1085.09 79.2896 1083.54 76.9758ZM1041.51 95.6789H1086.44V88.3519H1041.51V95.6789ZM1067.54 65.5997H1041.51V75.0477H1082.19C1080.27 72.9267 1078.14 70.9986 1075.64 69.4561C1072.94 67.9135 1070.24 66.7566 1067.54 65.5997ZM982.701 95.6789H1027.43V88.3519H982.701V95.6789ZM1041.51 106.091H1086.44V99.728H1041.51V106.091ZM982.701 106.091H1027.43V99.728H982.701V106.091ZM1041.51 116.503H1086.44V111.104H1041.51V116.503ZM982.701 116.503H1027.43V111.104H982.701V116.503ZM1041.51 126.915H1086.44V122.48H1041.51V126.915ZM982.701 126.915H1027.43V122.48H982.701V126.915ZM1102.01 64.6357H1201.51V0.813874H1156.58V57.6943C1152.73 56.9231 1149.64 55.1877 1146.94 52.6811C1144.24 50.1745 1142.31 47.6679 1141.54 44.9685V0.813874H1096.81V40.9194C1096.81 45.3542 1096.81 49.2105 1097.19 52.2955C1097.58 55.5734 1098.16 58.2728 1099.12 60.3937C1099.51 61.3578 1100.09 62.1291 1100.47 62.9003C1100.86 63.6716 1101.44 64.25 1102.01 64.6357ZM1118.79 75.0477H1201.51V65.5997H1102.79C1104.91 67.9135 1107.41 69.8417 1110.11 71.3842C1112.81 72.9267 1115.7 74.0836 1118.79 75.0477ZM1147.71 104.548L1147.52 104.934C1144.05 104.741 1141.93 103.006 1141.54 99.728H1096.81C1096.81 100.885 1096.81 102.042 1096.81 103.006C1096.81 104.163 1097 105.127 1097.19 106.091H1200.93C1201.12 104.934 1201.31 103.777 1201.31 103.006V101.463C1201.31 101.078 1201.31 100.499 1201.51 99.728H1155.81C1155.04 101.271 1154.07 102.427 1152.92 103.199C1151.57 104.163 1149.83 104.548 1147.71 104.548ZM1199.96 111.104H1098.35C1098.54 112.261 1098.93 113.418 1099.32 114.189C1099.7 115.153 1099.89 115.924 1100.28 116.503H1197.84C1198.62 114.96 1199.39 113.225 1199.96 111.104ZM1153.11 85.4597H1201.51V76.9758H1125.73C1131.13 78.3255 1136.14 79.4824 1141.16 80.4465C1146.17 81.6034 1150.03 83.1459 1153.11 85.4597ZM1193.22 122.48H1105.1C1107.03 124.408 1109.53 125.951 1112.62 126.915H1185.7C1188.78 125.951 1191.29 124.408 1193.22 122.48ZM1156.58 95.6789H1201.51V88.3519H1155.62C1155.81 88.9304 1156 89.316 1156.2 89.7016C1156.2 90.0873 1156.39 90.4729 1156.58 90.6657V95.6789ZM1096.81 95.6789H1141.54V88.3519H1096.81V95.6789Z" fill="#6D379A"/>
</svg>
